<svg width="24" height="24" viewBox="0 0 24 24" fill="none" xmlns="http://www.w3.org/2000/svg">
<path d="M15.71 8.29C15.617 8.19627 15.5064 8.12188 15.3845 8.07111C15.2627 8.02034 15.132 7.9942 15 7.9942C14.8679 7.9942 14.7372 8.02034 14.6154 8.07111C14.4935 8.12188 14.3829 8.19627 14.29 8.29L12 10.59L9.70996 8.29C9.52165 8.1017 9.26626 7.99591 8.99996 7.99591C8.73366 7.99591 8.47826 8.1017 8.28996 8.29C8.10165 8.4783 7.99587 8.7337 7.99587 9C7.99587 9.2663 8.10165 9.5217 8.28996 9.71L10.59 12L8.28996 14.29C8.19623 14.383 8.12183 14.4936 8.07107 14.6154C8.0203 14.7373 7.99416 14.868 7.99416 15C7.99416 15.132 8.0203 15.2627 8.07107 15.3846C8.12183 15.5064 8.19623 15.617 8.28996 15.71C8.38292 15.8037 8.49352 15.8781 8.61538 15.9289C8.73724 15.9797 8.86795 16.0058 8.99996 16.0058C9.13197 16.0058 9.26267 15.9797 9.38453 15.9289C9.50639 15.8781 9.61699 15.8037 9.70996 15.71L12 13.41L14.29 15.71C14.3829 15.8037 14.4935 15.8781 14.6154 15.9289C14.7372 15.9797 14.8679 16.0058 15 16.0058C15.132 16.0058 15.2627 15.9797 15.3845 15.9289C15.5064 15.8781 15.617 15.8037 15.71 15.71C15.8037 15.617 15.8781 15.5064 15.9288 15.3846C15.9796 15.2627 16.0058 15.132 16.0058 15C16.0058 14.868 15.9796 14.7373 15.9288 14.6154C15.8781 14.4936 15.8037 14.383 15.71 14.29L13.41 12L15.71 9.71C15.8037 9.61704 15.8781 9.50643 15.9288 9.38458C15.9796 9.26272 16.0058 9.13201 16.0058 9C16.0058 8.86799 15.9796 8.73728 15.9288 8.61542C15.8781 8.49356 15.8037 8.38296 15.71 8.29ZM19.07 4.93C18.1475 3.9749 17.044 3.21308 15.824 2.68899C14.604 2.1649 13.2918 1.88903 11.964 1.87749C10.6362 1.86596 9.31938 2.11897 8.09042 2.62178C6.86145 3.12459 5.74493 3.86712 4.80601 4.80605C3.86708 5.74498 3.12455 6.8615 2.62174 8.09046C2.11893 9.31942 1.86591 10.6362 1.87745 11.964C1.88899 13.2918 2.16485 14.604 2.68894 15.824C3.21303 17.0441 3.97486 18.1475 4.92996 19.07C5.85243 20.0251 6.95587 20.7869 8.17591 21.311C9.39595 21.8351 10.7082 22.111 12.0359 22.1225C13.3637 22.134 14.6805 21.881 15.9095 21.3782C17.1385 20.8754 18.255 20.1329 19.1939 19.194C20.1328 18.255 20.8754 17.1385 21.3782 15.9095C21.881 14.6806 22.134 13.3638 22.1225 12.036C22.1109 10.7082 21.8351 9.39599 21.311 8.17595C20.7869 6.95591 20.0251 5.85247 19.07 4.93ZM17.66 17.66C16.352 18.9694 14.6305 19.7848 12.7888 19.9673C10.947 20.1498 9.09896 19.6881 7.55948 18.6608C6.02 17.6335 4.88432 16.1042 4.34593 14.3335C3.80754 12.5628 3.89976 10.6601 4.60687 8.94978C5.31398 7.23943 6.59223 5.82715 8.22385 4.95356C9.85546 4.07998 11.7395 3.79913 13.555 4.15887C15.3704 4.51862 17.005 5.49669 18.1802 6.92646C19.3554 8.35623 19.9985 10.1492 20 12C20.0035 13.0513 19.7985 14.0928 19.3969 15.0644C18.9952 16.0359 18.4049 16.9181 17.66 17.66Z" fill="#333333"/>
</svg>
