<svg width="20" height="20" viewBox="0 0 20 20" fill="none" xmlns="http://www.w3.org/2000/svg">
<path d="M10 3.95833C9.78168 3.95833 9.61473 4.07833 9.40925 4.26833L6.51113 6.98333C6.34846 7.13833 6.25 7.36333 6.25 7.59833C6.25 8.08833 6.60103 8.43333 6.96062 8.43333C7.14041 8.43333 7.32021 8.34833 7.48288 8.19333L10 5.86333L12.5128 8.19333C12.6798 8.34833 12.8553 8.43333 13.0394 8.43333C13.399 8.43333 13.75 8.08833 13.75 7.59833C13.75 7.36333 13.6515 7.13833 13.4846 6.98333L10.5908 4.26833C10.3853 4.07333 10.2183 3.95833 10 3.95833ZM10 16.0417C10.2183 16.0417 10.3853 15.9217 10.5908 15.7267L13.4846 13.0167C13.6515 12.8617 13.75 12.6367 13.75 12.3967C13.75 11.9067 13.399 11.5617 13.0394 11.5617C12.8553 11.5617 12.6798 11.6517 12.5128 11.8017L10 14.1317L7.48288 11.8017C7.32021 11.6517 7.14041 11.5617 6.96062 11.5617C6.60103 11.5617 6.25 11.9067 6.25 12.3967C6.25 12.6367 6.34846 12.8617 6.51113 13.0167L9.40925 15.7267C9.61473 15.9217 9.78168 16.0417 10 16.0417Z" fill="#2D3540"/>
</svg>
