<svg width="14" height="14" viewBox="0 0 14 14" fill="none" xmlns="http://www.w3.org/2000/svg">
<path fill-rule="evenodd" clip-rule="evenodd" d="M5.93623 11.8871C7.25731 11.8871 8.4926 11.4405 9.4877 10.7018L12.1728 13.3902C12.509 13.7269 13.0546 13.7269 13.3908 13.3902C13.7271 13.0536 13.7264 12.5079 13.3892 12.1721L10.7058 9.49939C11.4436 8.50307 11.8897 7.28344 11.8897 5.94356C11.8897 2.66258 9.23035 0 5.95339 0C2.67642 0 -4.57764e-05 2.67975 -4.57764e-05 5.94356C-4.57764e-05 9.20736 2.67642 11.8871 5.93623 11.8871ZM6.03746 1.75C8.40778 1.75 10.325 3.60849 10.325 5.90625C10.325 8.20401 8.40778 10.0625 6.03746 10.0625C3.66713 10.0625 1.74995 8.20401 1.74995 5.90625C1.74995 3.60849 3.68456 1.75 6.03746 1.75Z" fill="#69788C"/>
</svg>
